<svg width="211" height="161" viewBox="0 0 211 161" fill="none" xmlns="http://www.w3.org/2000/svg">
<path d="M58.6237 15.0433L101.041 91.5453C102.149 93.5448 100.703 96 98.417 96H13.583C11.2967 96 9.85069 93.5448 10.9593 91.5453L53.3763 15.0433C54.5187 12.9829 57.4813 12.9829 58.6237 15.0433Z" stroke="white" stroke-width="10"/>
<circle cx="162.5" cy="54.5" r="41.5" stroke="white" stroke-width="10"/>
<rect x="50.7664" y="63.0996" width="116.283" height="9.14266" rx="4.57133" transform="rotate(-6.99077 50.7664 63.0996)" fill="white"/>
<path d="M15.455 142.146L10.249 139.866C8.12103 138.929 6.6137 137.865 5.72703 136.674C4.84037 135.458 4.39703 133.887 4.39703 131.962C4.39703 129.023 5.19503 127.009 6.79103 125.92C8.38703 124.805 11.1864 124.248 15.189 124.248C19.0144 124.248 22.1937 124.691 24.727 125.578L24.233 130.86C21.193 130.809 18.115 130.784 14.999 130.784C14.0364 130.784 13.3904 130.847 13.061 130.974C12.7317 131.101 12.567 131.367 12.567 131.772C12.567 132.127 12.719 132.431 13.023 132.684C13.3524 132.912 13.9604 133.203 14.847 133.558L19.597 135.534C21.7504 136.471 23.2704 137.548 24.157 138.764C25.0437 139.98 25.487 141.563 25.487 143.514C25.487 146.478 24.7144 148.555 23.169 149.746C21.6237 150.937 18.8244 151.532 14.771 151.532C11.351 151.532 7.96903 151.101 4.62503 150.24L5.11903 144.464C10.135 144.591 13.3144 144.654 14.657 144.654C15.6957 144.654 16.3797 144.591 16.709 144.464C17.0637 144.337 17.241 144.097 17.241 143.742C17.241 143.387 17.1144 143.096 16.861 142.868C16.633 142.64 16.1644 142.399 15.455 142.146ZM53.3544 124.78V140.17C53.3544 144.35 52.5184 147.289 50.8464 148.986C49.1744 150.683 46.2864 151.532 42.1824 151.532C37.7491 151.532 34.6331 150.683 32.8344 148.986C31.0357 147.289 30.1364 144.35 30.1364 140.17V124.78H38.3824V140.17C38.3824 142.273 38.6104 143.679 39.0664 144.388C39.5224 145.072 40.4217 145.414 41.7644 145.414C43.0817 145.414 43.9684 145.072 44.4244 144.388C44.8804 143.679 45.1084 142.273 45.1084 140.17V124.78H53.3544ZM83.1494 124.78V148.15C83.1494 150.05 82.1994 151 80.2994 151H77.1454C76.36 151 75.752 150.823 75.3214 150.468C74.916 150.113 74.46 149.493 73.9534 148.606L68.2534 139.6C67.62 138.46 67.0374 136.965 66.5054 135.116H66.2394C66.4927 136.889 66.6194 138.485 66.6194 139.904V151H59.0194V127.63C59.0194 125.73 59.9694 124.78 61.8694 124.78H65.0234C65.8087 124.78 66.404 124.957 66.8094 125.312C67.2147 125.667 67.6834 126.287 68.2154 127.174L73.6874 135.762C74.3714 136.978 75.0427 138.473 75.7014 140.246H75.9674C75.7394 138.371 75.6127 136.788 75.5874 135.496V124.78H83.1494ZM110.976 135.914V151H104.896L104.174 148.302C103.465 149.189 102.477 149.949 101.21 150.582C99.9687 151.215 98.5374 151.532 96.916 151.532C93.8507 151.532 91.634 150.493 90.266 148.416C88.898 146.313 88.214 142.805 88.214 137.89C88.214 132.874 89.1387 129.353 90.988 127.326C92.8374 125.274 96.0294 124.248 100.564 124.248C104.212 124.248 107.315 124.615 109.874 125.35L109.266 131.278C105.415 131.227 102.527 131.202 100.602 131.202C99.1327 131.202 98.1447 131.645 97.638 132.532C97.1314 133.419 96.878 135.205 96.878 137.89C96.878 140.525 97.106 142.285 97.562 143.172C98.018 144.059 98.9047 144.502 100.222 144.502C101.109 144.502 102.059 144.426 103.072 144.274V135.914H110.976ZM151.449 124.78L148.181 148.796C148.08 149.455 147.763 149.987 147.231 150.392C146.699 150.797 146.079 151 145.369 151H138.377C137.668 151 137.035 150.797 136.477 150.392C135.945 149.987 135.641 149.455 135.565 148.796L133.779 134.318C133.678 133.533 133.577 132.253 133.475 130.48H132.829C132.728 132.253 132.627 133.545 132.525 134.356L130.777 148.796C130.701 149.455 130.385 149.987 129.827 150.392C129.295 150.797 128.675 151 127.965 151H120.935C120.226 151 119.605 150.797 119.073 150.392C118.541 149.987 118.225 149.455 118.123 148.796L114.855 124.78H122.987L124.317 140.854C124.419 142.577 124.469 144.033 124.469 145.224H125.077C125.432 142.741 125.635 141.272 125.685 140.816L127.433 127.212C127.509 126.503 127.801 125.92 128.307 125.464C128.839 125.008 129.473 124.78 130.207 124.78H136.097C136.832 124.78 137.453 125.008 137.959 125.464C138.466 125.895 138.77 126.477 138.871 127.212L140.657 140.892C140.733 141.652 140.923 143.096 141.227 145.224H141.835C141.835 144.515 141.899 143.083 142.025 140.93L143.317 124.78H151.449ZM167.335 124.248C170.451 124.248 172.858 124.641 174.555 125.426C176.278 126.186 177.544 127.554 178.355 129.53C179.166 131.481 179.571 134.267 179.571 137.89C179.571 141.513 179.166 144.312 178.355 146.288C177.544 148.239 176.278 149.607 174.555 150.392C172.858 151.152 170.451 151.532 167.335 151.532C164.244 151.532 161.838 151.152 160.115 150.392C158.418 149.607 157.164 148.239 156.353 146.288C155.542 144.312 155.137 141.513 155.137 137.89C155.137 134.267 155.542 131.481 156.353 129.53C157.164 127.554 158.418 126.186 160.115 125.426C161.838 124.641 164.244 124.248 167.335 124.248ZM170.147 131.886C169.691 130.873 168.754 130.366 167.335 130.366C165.916 130.366 164.966 130.873 164.485 131.886C164.029 132.874 163.801 134.875 163.801 137.89C163.801 140.905 164.029 142.919 164.485 143.932C164.966 144.92 165.916 145.414 167.335 145.414C168.754 145.414 169.691 144.92 170.147 143.932C170.628 142.919 170.869 140.905 170.869 137.89C170.869 134.875 170.628 132.874 170.147 131.886ZM208.794 124.78V148.15C208.794 150.05 207.844 151 205.944 151H202.79C202.005 151 201.397 150.823 200.966 150.468C200.561 150.113 200.105 149.493 199.598 148.606L193.898 139.6C193.265 138.46 192.682 136.965 192.15 135.116H191.884C192.138 136.889 192.264 138.485 192.264 139.904V151H184.664V127.63C184.664 125.73 185.614 124.78 187.514 124.78H190.668C191.454 124.78 192.049 124.957 192.454 125.312C192.86 125.667 193.328 126.287 193.86 127.174L199.332 135.762C200.016 136.978 200.688 138.473 201.346 140.246H201.612C201.384 138.371 201.258 136.788 201.232 135.496V124.78H208.794Z" fill="white"/>
</svg>
